# xmcd
#
# Track frame offsets: 
#        150
#        15572
#        33997
#        48672
#        64519
#        84403
#        101248
#        114656
#        136130
#        153047
#        166077
#        187804
#
# Disc length: 2798 seconds
#
# Revision: 0
# Processed by: cddbd v1.5.2PL0 Copyright (c) Steve Scherf et al.
# Submitted via: ExactAudioCopy v0.99pb4
#
DISCID=8a0aec0c
DTITLE=Hawa - Another Tree
DYEAR=2013
DGENRE=soul
TTITLE0=Damages
TTITLE1=Bout Thi Dream
TTITLE2=Another Tree
TTITLE3=Beam Me Up
TTITLE4=Gone Away
TTITLE5=Kind Of Thing
TTITLE6=Hey Babe
TTITLE7=Louder
TTITLE8=Heard It So
TTITLE9=Do It
TTITLE10=A.K.A. Pata Pata
TTITLE11=Dear Past
EXTD=
EXTT0=
EXTT1=
EXTT2=
EXTT3=
EXTT4=
EXTT5=
EXTT6=
EXTT7=
EXTT8=
EXTT9=
EXTT10=
EXTT11=
PLAYORDER=
